<mxfile host="app.diagrams.net" modified="2020-10-04T12:39:40.189Z" agent="5.0 (X11; Linux x86_64) AppleWebKit/537.36 (KHTML, like Gecko) Chrome/85.0.4183.121 Safari/537.36" etag="1TLNEf7e3Gopdil6EcMP" version="13.7.7" type="github" pages="3">
  <diagram id="C5RBs43oDa-KdzZeNtuy" name="Page-1">
    <mxGraphModel dx="1422" dy="763" grid="1" gridSize="10" guides="1" tooltips="1" connect="1" arrows="1" fold="1" page="1" pageScale="1" pageWidth="827" pageHeight="1169" math="0" shadow="1">
      <root>
        <mxCell id="WIyWlLk6GJQsqaUBKTNV-0" />
        <mxCell id="WIyWlLk6GJQsqaUBKTNV-1" parent="WIyWlLk6GJQsqaUBKTNV-0" />
        <mxCell id="PVWiegsbPPJGI24b19QW-0" value="" style="edgeStyle=orthogonalEdgeStyle;orthogonalLoop=1;jettySize=auto;html=1;" edge="1" parent="WIyWlLk6GJQsqaUBKTNV-1" source="PVWiegsbPPJGI24b19QW-1" target="PVWiegsbPPJGI24b19QW-3">
          <mxGeometry relative="1" as="geometry" />
        </mxCell>
        <mxCell id="PVWiegsbPPJGI24b19QW-1" value="start" style="ellipse;whiteSpace=wrap;html=1;rounded=1;" vertex="1" parent="WIyWlLk6GJQsqaUBKTNV-1">
          <mxGeometry x="95" y="40" width="110" height="80" as="geometry" />
        </mxCell>
        <mxCell id="PVWiegsbPPJGI24b19QW-2" value="" style="edgeStyle=orthogonalEdgeStyle;orthogonalLoop=1;jettySize=auto;html=1;" edge="1" parent="WIyWlLk6GJQsqaUBKTNV-1" source="PVWiegsbPPJGI24b19QW-3" target="PVWiegsbPPJGI24b19QW-5">
          <mxGeometry relative="1" as="geometry" />
        </mxCell>
        <mxCell id="PVWiegsbPPJGI24b19QW-3" value="int hari" style="whiteSpace=wrap;html=1;rounded=1;" vertex="1" parent="WIyWlLk6GJQsqaUBKTNV-1">
          <mxGeometry x="90" y="160" width="120" height="60" as="geometry" />
        </mxCell>
        <mxCell id="PVWiegsbPPJGI24b19QW-4" value="" style="edgeStyle=orthogonalEdgeStyle;orthogonalLoop=1;jettySize=auto;html=1;" edge="1" parent="WIyWlLk6GJQsqaUBKTNV-1" source="PVWiegsbPPJGI24b19QW-5" target="PVWiegsbPPJGI24b19QW-8">
          <mxGeometry relative="1" as="geometry" />
        </mxCell>
        <mxCell id="PVWiegsbPPJGI24b19QW-5" value="input hari" style="shape=parallelogram;perimeter=parallelogramPerimeter;whiteSpace=wrap;html=1;fixedSize=1;rounded=1;" vertex="1" parent="WIyWlLk6GJQsqaUBKTNV-1">
          <mxGeometry x="90" y="250" width="120" height="60" as="geometry" />
        </mxCell>
        <mxCell id="PVWiegsbPPJGI24b19QW-6" value="" style="edgeStyle=orthogonalEdgeStyle;orthogonalLoop=1;jettySize=auto;html=1;" edge="1" parent="WIyWlLk6GJQsqaUBKTNV-1" source="PVWiegsbPPJGI24b19QW-8" target="PVWiegsbPPJGI24b19QW-30">
          <mxGeometry relative="1" as="geometry" />
        </mxCell>
        <mxCell id="PVWiegsbPPJGI24b19QW-7" value="" style="edgeStyle=orthogonalEdgeStyle;orthogonalLoop=1;jettySize=auto;html=1;" edge="1" parent="WIyWlLk6GJQsqaUBKTNV-1" source="PVWiegsbPPJGI24b19QW-8" target="PVWiegsbPPJGI24b19QW-11">
          <mxGeometry relative="1" as="geometry" />
        </mxCell>
        <mxCell id="PVWiegsbPPJGI24b19QW-8" value="case 1" style="rhombus;whiteSpace=wrap;html=1;rounded=1;" vertex="1" parent="WIyWlLk6GJQsqaUBKTNV-1">
          <mxGeometry x="90" y="340" width="120" height="130" as="geometry" />
        </mxCell>
        <mxCell id="PVWiegsbPPJGI24b19QW-9" value="" style="edgeStyle=orthogonalEdgeStyle;orthogonalLoop=1;jettySize=auto;html=1;" edge="1" parent="WIyWlLk6GJQsqaUBKTNV-1" source="PVWiegsbPPJGI24b19QW-11" target="PVWiegsbPPJGI24b19QW-14">
          <mxGeometry relative="1" as="geometry" />
        </mxCell>
        <mxCell id="PVWiegsbPPJGI24b19QW-10" value="" style="edgeStyle=orthogonalEdgeStyle;orthogonalLoop=1;jettySize=auto;html=1;" edge="1" parent="WIyWlLk6GJQsqaUBKTNV-1" source="PVWiegsbPPJGI24b19QW-11" target="PVWiegsbPPJGI24b19QW-32">
          <mxGeometry relative="1" as="geometry" />
        </mxCell>
        <mxCell id="PVWiegsbPPJGI24b19QW-11" value="case 2" style="rhombus;whiteSpace=wrap;html=1;rounded=1;" vertex="1" parent="WIyWlLk6GJQsqaUBKTNV-1">
          <mxGeometry x="90" y="490" width="120" height="130" as="geometry" />
        </mxCell>
        <mxCell id="PVWiegsbPPJGI24b19QW-12" value="" style="edgeStyle=orthogonalEdgeStyle;orthogonalLoop=1;jettySize=auto;html=1;" edge="1" parent="WIyWlLk6GJQsqaUBKTNV-1" source="PVWiegsbPPJGI24b19QW-14" target="PVWiegsbPPJGI24b19QW-17">
          <mxGeometry relative="1" as="geometry" />
        </mxCell>
        <mxCell id="PVWiegsbPPJGI24b19QW-13" value="" style="edgeStyle=orthogonalEdgeStyle;orthogonalLoop=1;jettySize=auto;html=1;" edge="1" parent="WIyWlLk6GJQsqaUBKTNV-1" source="PVWiegsbPPJGI24b19QW-14" target="PVWiegsbPPJGI24b19QW-34">
          <mxGeometry relative="1" as="geometry" />
        </mxCell>
        <mxCell id="PVWiegsbPPJGI24b19QW-14" value="case 3" style="rhombus;whiteSpace=wrap;html=1;rounded=1;" vertex="1" parent="WIyWlLk6GJQsqaUBKTNV-1">
          <mxGeometry x="90" y="640" width="120" height="130" as="geometry" />
        </mxCell>
        <mxCell id="PVWiegsbPPJGI24b19QW-15" value="" style="edgeStyle=orthogonalEdgeStyle;orthogonalLoop=1;jettySize=auto;html=1;" edge="1" parent="WIyWlLk6GJQsqaUBKTNV-1" source="PVWiegsbPPJGI24b19QW-17" target="PVWiegsbPPJGI24b19QW-20">
          <mxGeometry relative="1" as="geometry" />
        </mxCell>
        <mxCell id="PVWiegsbPPJGI24b19QW-16" value="" style="edgeStyle=orthogonalEdgeStyle;orthogonalLoop=1;jettySize=auto;html=1;" edge="1" parent="WIyWlLk6GJQsqaUBKTNV-1" source="PVWiegsbPPJGI24b19QW-17" target="PVWiegsbPPJGI24b19QW-36">
          <mxGeometry relative="1" as="geometry" />
        </mxCell>
        <mxCell id="PVWiegsbPPJGI24b19QW-17" value="case 4" style="rhombus;whiteSpace=wrap;html=1;rounded=1;" vertex="1" parent="WIyWlLk6GJQsqaUBKTNV-1">
          <mxGeometry x="90" y="790" width="120" height="130" as="geometry" />
        </mxCell>
        <mxCell id="PVWiegsbPPJGI24b19QW-18" value="" style="edgeStyle=orthogonalEdgeStyle;orthogonalLoop=1;jettySize=auto;html=1;" edge="1" parent="WIyWlLk6GJQsqaUBKTNV-1" source="PVWiegsbPPJGI24b19QW-20" target="PVWiegsbPPJGI24b19QW-23">
          <mxGeometry relative="1" as="geometry" />
        </mxCell>
        <mxCell id="PVWiegsbPPJGI24b19QW-19" value="" style="edgeStyle=orthogonalEdgeStyle;orthogonalLoop=1;jettySize=auto;html=1;" edge="1" parent="WIyWlLk6GJQsqaUBKTNV-1" source="PVWiegsbPPJGI24b19QW-20" target="PVWiegsbPPJGI24b19QW-38">
          <mxGeometry relative="1" as="geometry" />
        </mxCell>
        <mxCell id="PVWiegsbPPJGI24b19QW-20" value="case 5" style="rhombus;whiteSpace=wrap;html=1;rounded=1;" vertex="1" parent="WIyWlLk6GJQsqaUBKTNV-1">
          <mxGeometry x="90" y="940" width="120" height="130" as="geometry" />
        </mxCell>
        <mxCell id="PVWiegsbPPJGI24b19QW-21" value="" style="edgeStyle=orthogonalEdgeStyle;orthogonalLoop=1;jettySize=auto;html=1;" edge="1" parent="WIyWlLk6GJQsqaUBKTNV-1" source="PVWiegsbPPJGI24b19QW-23" target="PVWiegsbPPJGI24b19QW-26">
          <mxGeometry relative="1" as="geometry" />
        </mxCell>
        <mxCell id="PVWiegsbPPJGI24b19QW-22" value="" style="edgeStyle=orthogonalEdgeStyle;orthogonalLoop=1;jettySize=auto;html=1;" edge="1" parent="WIyWlLk6GJQsqaUBKTNV-1" source="PVWiegsbPPJGI24b19QW-23" target="PVWiegsbPPJGI24b19QW-40">
          <mxGeometry relative="1" as="geometry" />
        </mxCell>
        <mxCell id="PVWiegsbPPJGI24b19QW-23" value="case 6" style="rhombus;whiteSpace=wrap;html=1;rounded=1;" vertex="1" parent="WIyWlLk6GJQsqaUBKTNV-1">
          <mxGeometry x="90" y="1110" width="120" height="130" as="geometry" />
        </mxCell>
        <mxCell id="PVWiegsbPPJGI24b19QW-24" value="" style="edgeStyle=orthogonalEdgeStyle;orthogonalLoop=1;jettySize=auto;html=1;" edge="1" parent="WIyWlLk6GJQsqaUBKTNV-1" source="PVWiegsbPPJGI24b19QW-26" target="PVWiegsbPPJGI24b19QW-42">
          <mxGeometry relative="1" as="geometry" />
        </mxCell>
        <mxCell id="PVWiegsbPPJGI24b19QW-25" value="" style="edgeStyle=orthogonalEdgeStyle;orthogonalLoop=1;jettySize=auto;html=1;" edge="1" parent="WIyWlLk6GJQsqaUBKTNV-1" source="PVWiegsbPPJGI24b19QW-26" target="PVWiegsbPPJGI24b19QW-28">
          <mxGeometry relative="1" as="geometry" />
        </mxCell>
        <mxCell id="PVWiegsbPPJGI24b19QW-26" value="case 7" style="rhombus;whiteSpace=wrap;html=1;rounded=1;" vertex="1" parent="WIyWlLk6GJQsqaUBKTNV-1">
          <mxGeometry x="90" y="1260" width="120" height="130" as="geometry" />
        </mxCell>
        <mxCell id="PVWiegsbPPJGI24b19QW-27" value="" style="edgeStyle=orthogonalEdgeStyle;orthogonalLoop=1;jettySize=auto;html=1;" edge="1" parent="WIyWlLk6GJQsqaUBKTNV-1" source="PVWiegsbPPJGI24b19QW-28" target="PVWiegsbPPJGI24b19QW-44">
          <mxGeometry relative="1" as="geometry" />
        </mxCell>
        <mxCell id="PVWiegsbPPJGI24b19QW-28" value="Default" style="rhombus;whiteSpace=wrap;html=1;rounded=1;" vertex="1" parent="WIyWlLk6GJQsqaUBKTNV-1">
          <mxGeometry x="90" y="1420" width="120" height="130" as="geometry" />
        </mxCell>
        <mxCell id="PVWiegsbPPJGI24b19QW-29" value="" style="edgeStyle=orthogonalEdgeStyle;orthogonalLoop=1;jettySize=auto;html=1;" edge="1" parent="WIyWlLk6GJQsqaUBKTNV-1" source="PVWiegsbPPJGI24b19QW-30" target="PVWiegsbPPJGI24b19QW-45">
          <mxGeometry relative="1" as="geometry" />
        </mxCell>
        <mxCell id="PVWiegsbPPJGI24b19QW-30" value="print &quot;minggu&quot;" style="shape=parallelogram;perimeter=parallelogramPerimeter;whiteSpace=wrap;html=1;fixedSize=1;rounded=1;" vertex="1" parent="WIyWlLk6GJQsqaUBKTNV-1">
          <mxGeometry x="270" y="375" width="120" height="60" as="geometry" />
        </mxCell>
        <mxCell id="PVWiegsbPPJGI24b19QW-31" value="" style="edgeStyle=orthogonalEdgeStyle;orthogonalLoop=1;jettySize=auto;html=1;" edge="1" parent="WIyWlLk6GJQsqaUBKTNV-1" source="PVWiegsbPPJGI24b19QW-32">
          <mxGeometry relative="1" as="geometry">
            <mxPoint x="580" y="555" as="targetPoint" />
          </mxGeometry>
        </mxCell>
        <mxCell id="PVWiegsbPPJGI24b19QW-32" value="print &quot;senin&quot;" style="shape=parallelogram;perimeter=parallelogramPerimeter;whiteSpace=wrap;html=1;fixedSize=1;rounded=1;" vertex="1" parent="WIyWlLk6GJQsqaUBKTNV-1">
          <mxGeometry x="270" y="525" width="120" height="60" as="geometry" />
        </mxCell>
        <mxCell id="PVWiegsbPPJGI24b19QW-33" style="edgeStyle=orthogonalEdgeStyle;orthogonalLoop=1;jettySize=auto;html=1;" edge="1" parent="WIyWlLk6GJQsqaUBKTNV-1" source="PVWiegsbPPJGI24b19QW-34">
          <mxGeometry relative="1" as="geometry">
            <mxPoint x="580" y="705.0000000000002" as="targetPoint" />
          </mxGeometry>
        </mxCell>
        <mxCell id="PVWiegsbPPJGI24b19QW-34" value="print &quot;selasa&quot;" style="shape=parallelogram;perimeter=parallelogramPerimeter;whiteSpace=wrap;html=1;fixedSize=1;rounded=1;" vertex="1" parent="WIyWlLk6GJQsqaUBKTNV-1">
          <mxGeometry x="270" y="675" width="120" height="60" as="geometry" />
        </mxCell>
        <mxCell id="PVWiegsbPPJGI24b19QW-35" style="edgeStyle=orthogonalEdgeStyle;orthogonalLoop=1;jettySize=auto;html=1;" edge="1" parent="WIyWlLk6GJQsqaUBKTNV-1" source="PVWiegsbPPJGI24b19QW-36">
          <mxGeometry relative="1" as="geometry">
            <mxPoint x="580" y="860" as="targetPoint" />
            <Array as="points">
              <mxPoint x="580" y="855" />
            </Array>
          </mxGeometry>
        </mxCell>
        <mxCell id="PVWiegsbPPJGI24b19QW-36" value="print &quot;rabu&quot;" style="shape=parallelogram;perimeter=parallelogramPerimeter;whiteSpace=wrap;html=1;fixedSize=1;rounded=1;" vertex="1" parent="WIyWlLk6GJQsqaUBKTNV-1">
          <mxGeometry x="270" y="825" width="120" height="60" as="geometry" />
        </mxCell>
        <mxCell id="PVWiegsbPPJGI24b19QW-37" style="edgeStyle=orthogonalEdgeStyle;orthogonalLoop=1;jettySize=auto;html=1;" edge="1" parent="WIyWlLk6GJQsqaUBKTNV-1" source="PVWiegsbPPJGI24b19QW-38">
          <mxGeometry relative="1" as="geometry">
            <mxPoint x="580" y="1005" as="targetPoint" />
          </mxGeometry>
        </mxCell>
        <mxCell id="PVWiegsbPPJGI24b19QW-38" value="print &quot;kamis&quot;" style="shape=parallelogram;perimeter=parallelogramPerimeter;whiteSpace=wrap;html=1;fixedSize=1;rounded=1;" vertex="1" parent="WIyWlLk6GJQsqaUBKTNV-1">
          <mxGeometry x="270" y="975" width="120" height="60" as="geometry" />
        </mxCell>
        <mxCell id="PVWiegsbPPJGI24b19QW-39" style="edgeStyle=orthogonalEdgeStyle;orthogonalLoop=1;jettySize=auto;html=1;" edge="1" parent="WIyWlLk6GJQsqaUBKTNV-1" source="PVWiegsbPPJGI24b19QW-40">
          <mxGeometry relative="1" as="geometry">
            <mxPoint x="580" y="1175" as="targetPoint" />
          </mxGeometry>
        </mxCell>
        <mxCell id="PVWiegsbPPJGI24b19QW-40" value="print &quot;jumat&quot;" style="shape=parallelogram;perimeter=parallelogramPerimeter;whiteSpace=wrap;html=1;fixedSize=1;rounded=1;" vertex="1" parent="WIyWlLk6GJQsqaUBKTNV-1">
          <mxGeometry x="270" y="1145" width="120" height="60" as="geometry" />
        </mxCell>
        <mxCell id="PVWiegsbPPJGI24b19QW-41" style="edgeStyle=orthogonalEdgeStyle;orthogonalLoop=1;jettySize=auto;html=1;" edge="1" parent="WIyWlLk6GJQsqaUBKTNV-1" source="PVWiegsbPPJGI24b19QW-42">
          <mxGeometry relative="1" as="geometry">
            <mxPoint x="580" y="1325" as="targetPoint" />
          </mxGeometry>
        </mxCell>
        <mxCell id="PVWiegsbPPJGI24b19QW-42" value="print &quot;sabtu&quot;" style="shape=parallelogram;perimeter=parallelogramPerimeter;whiteSpace=wrap;html=1;fixedSize=1;rounded=1;" vertex="1" parent="WIyWlLk6GJQsqaUBKTNV-1">
          <mxGeometry x="270" y="1295" width="120" height="60" as="geometry" />
        </mxCell>
        <mxCell id="PVWiegsbPPJGI24b19QW-43" style="edgeStyle=orthogonalEdgeStyle;orthogonalLoop=1;jettySize=auto;html=1;" edge="1" parent="WIyWlLk6GJQsqaUBKTNV-1" source="PVWiegsbPPJGI24b19QW-44">
          <mxGeometry relative="1" as="geometry">
            <mxPoint x="580" y="1485" as="targetPoint" />
          </mxGeometry>
        </mxCell>
        <mxCell id="PVWiegsbPPJGI24b19QW-44" value="print &quot;Hari tidak valid&quot;" style="shape=parallelogram;perimeter=parallelogramPerimeter;whiteSpace=wrap;html=1;fixedSize=1;rounded=1;" vertex="1" parent="WIyWlLk6GJQsqaUBKTNV-1">
          <mxGeometry x="270" y="1455" width="120" height="60" as="geometry" />
        </mxCell>
        <mxCell id="PVWiegsbPPJGI24b19QW-45" value="end" style="ellipse;whiteSpace=wrap;html=1;rounded=1;" vertex="1" parent="WIyWlLk6GJQsqaUBKTNV-1">
          <mxGeometry x="520" y="1580" width="120" height="80" as="geometry" />
        </mxCell>
        <mxCell id="PVWiegsbPPJGI24b19QW-46" value="true" style="text;html=1;strokeColor=none;fillColor=none;align=center;verticalAlign=middle;whiteSpace=wrap;rounded=1;" vertex="1" parent="WIyWlLk6GJQsqaUBKTNV-1">
          <mxGeometry x="220" y="375" width="40" height="20" as="geometry" />
        </mxCell>
        <mxCell id="PVWiegsbPPJGI24b19QW-47" value="true" style="text;html=1;strokeColor=none;fillColor=none;align=center;verticalAlign=middle;whiteSpace=wrap;rounded=1;" vertex="1" parent="WIyWlLk6GJQsqaUBKTNV-1">
          <mxGeometry x="230" y="525" width="40" height="20" as="geometry" />
        </mxCell>
        <mxCell id="PVWiegsbPPJGI24b19QW-48" value="true" style="text;html=1;strokeColor=none;fillColor=none;align=center;verticalAlign=middle;whiteSpace=wrap;rounded=1;" vertex="1" parent="WIyWlLk6GJQsqaUBKTNV-1">
          <mxGeometry x="220" y="675" width="40" height="20" as="geometry" />
        </mxCell>
        <mxCell id="PVWiegsbPPJGI24b19QW-49" value="true" style="text;html=1;strokeColor=none;fillColor=none;align=center;verticalAlign=middle;whiteSpace=wrap;rounded=1;" vertex="1" parent="WIyWlLk6GJQsqaUBKTNV-1">
          <mxGeometry x="220" y="825" width="40" height="20" as="geometry" />
        </mxCell>
        <mxCell id="PVWiegsbPPJGI24b19QW-50" value="true" style="text;html=1;strokeColor=none;fillColor=none;align=center;verticalAlign=middle;whiteSpace=wrap;rounded=1;" vertex="1" parent="WIyWlLk6GJQsqaUBKTNV-1">
          <mxGeometry x="220" y="975" width="40" height="20" as="geometry" />
        </mxCell>
        <mxCell id="PVWiegsbPPJGI24b19QW-51" value="true" style="text;html=1;strokeColor=none;fillColor=none;align=center;verticalAlign=middle;whiteSpace=wrap;rounded=1;" vertex="1" parent="WIyWlLk6GJQsqaUBKTNV-1">
          <mxGeometry x="220" y="1145" width="40" height="20" as="geometry" />
        </mxCell>
        <mxCell id="PVWiegsbPPJGI24b19QW-52" value="true" style="text;html=1;strokeColor=none;fillColor=none;align=center;verticalAlign=middle;whiteSpace=wrap;rounded=1;" vertex="1" parent="WIyWlLk6GJQsqaUBKTNV-1">
          <mxGeometry x="220" y="1295" width="40" height="20" as="geometry" />
        </mxCell>
        <mxCell id="PVWiegsbPPJGI24b19QW-53" value="true" style="text;html=1;strokeColor=none;fillColor=none;align=center;verticalAlign=middle;whiteSpace=wrap;rounded=1;" vertex="1" parent="WIyWlLk6GJQsqaUBKTNV-1">
          <mxGeometry x="220" y="1455" width="40" height="20" as="geometry" />
        </mxCell>
        <mxCell id="PVWiegsbPPJGI24b19QW-54" value="false" style="text;html=1;strokeColor=none;fillColor=none;align=center;verticalAlign=middle;whiteSpace=wrap;rounded=1;" vertex="1" parent="WIyWlLk6GJQsqaUBKTNV-1">
          <mxGeometry x="110" y="1400" width="40" height="20" as="geometry" />
        </mxCell>
        <mxCell id="PVWiegsbPPJGI24b19QW-55" value="false" style="text;html=1;strokeColor=none;fillColor=none;align=center;verticalAlign=middle;whiteSpace=wrap;rounded=1;" vertex="1" parent="WIyWlLk6GJQsqaUBKTNV-1">
          <mxGeometry x="110" y="1240" width="40" height="20" as="geometry" />
        </mxCell>
        <mxCell id="PVWiegsbPPJGI24b19QW-56" value="false" style="text;html=1;strokeColor=none;fillColor=none;align=center;verticalAlign=middle;whiteSpace=wrap;rounded=1;" vertex="1" parent="WIyWlLk6GJQsqaUBKTNV-1">
          <mxGeometry x="100" y="1080" width="40" height="20" as="geometry" />
        </mxCell>
        <mxCell id="PVWiegsbPPJGI24b19QW-57" value="false" style="text;html=1;strokeColor=none;fillColor=none;align=center;verticalAlign=middle;whiteSpace=wrap;rounded=1;" vertex="1" parent="WIyWlLk6GJQsqaUBKTNV-1">
          <mxGeometry x="100" y="920" width="40" height="20" as="geometry" />
        </mxCell>
        <mxCell id="PVWiegsbPPJGI24b19QW-58" value="false" style="text;html=1;strokeColor=none;fillColor=none;align=center;verticalAlign=middle;whiteSpace=wrap;rounded=1;" vertex="1" parent="WIyWlLk6GJQsqaUBKTNV-1">
          <mxGeometry x="110" y="770" width="40" height="20" as="geometry" />
        </mxCell>
        <mxCell id="PVWiegsbPPJGI24b19QW-59" value="false" style="text;html=1;strokeColor=none;fillColor=none;align=center;verticalAlign=middle;whiteSpace=wrap;rounded=1;" vertex="1" parent="WIyWlLk6GJQsqaUBKTNV-1">
          <mxGeometry x="100" y="620" width="40" height="20" as="geometry" />
        </mxCell>
        <mxCell id="PVWiegsbPPJGI24b19QW-60" value="false" style="text;html=1;strokeColor=none;fillColor=none;align=center;verticalAlign=middle;whiteSpace=wrap;rounded=1;" vertex="1" parent="WIyWlLk6GJQsqaUBKTNV-1">
          <mxGeometry x="100" y="470" width="40" height="20" as="geometry" />
        </mxCell>
      </root>
    </mxGraphModel>
  </diagram>
  <diagram id="b1ZRnaAwos2asOJqCkMH" name="Page-2">
    <mxGraphModel dx="1422" dy="710" grid="1" gridSize="10" guides="1" tooltips="1" connect="1" arrows="1" fold="1" page="1" pageScale="1" pageWidth="850" pageHeight="1100" math="0" shadow="0">
      <root>
        <mxCell id="ecncw-W4oVsxr-dDjoRC-0" />
        <mxCell id="ecncw-W4oVsxr-dDjoRC-1" parent="ecncw-W4oVsxr-dDjoRC-0" />
        <mxCell id="2UeDjiOMkqZX41mlmmPi-0" value="" style="edgeStyle=orthogonalEdgeStyle;orthogonalLoop=1;jettySize=auto;html=1;" edge="1" parent="ecncw-W4oVsxr-dDjoRC-1" source="2UeDjiOMkqZX41mlmmPi-1" target="2UeDjiOMkqZX41mlmmPi-3">
          <mxGeometry relative="1" as="geometry" />
        </mxCell>
        <mxCell id="2UeDjiOMkqZX41mlmmPi-1" value="start" style="ellipse;whiteSpace=wrap;html=1;rounded=1;" vertex="1" parent="ecncw-W4oVsxr-dDjoRC-1">
          <mxGeometry x="95" y="40" width="110" height="80" as="geometry" />
        </mxCell>
        <mxCell id="2UeDjiOMkqZX41mlmmPi-2" value="" style="edgeStyle=orthogonalEdgeStyle;orthogonalLoop=1;jettySize=auto;html=1;" edge="1" parent="ecncw-W4oVsxr-dDjoRC-1" source="2UeDjiOMkqZX41mlmmPi-3" target="2UeDjiOMkqZX41mlmmPi-5">
          <mxGeometry relative="1" as="geometry" />
        </mxCell>
        <mxCell id="2UeDjiOMkqZX41mlmmPi-3" value="int number1, number 2, result&lt;br&gt;char operator&lt;br&gt;" style="whiteSpace=wrap;html=1;rounded=1;" vertex="1" parent="ecncw-W4oVsxr-dDjoRC-1">
          <mxGeometry x="90" y="160" width="120" height="60" as="geometry" />
        </mxCell>
        <mxCell id="2UeDjiOMkqZX41mlmmPi-4" value="" style="edgeStyle=orthogonalEdgeStyle;orthogonalLoop=1;jettySize=auto;html=1;" edge="1" parent="ecncw-W4oVsxr-dDjoRC-1" source="2UeDjiOMkqZX41mlmmPi-5" target="2UeDjiOMkqZX41mlmmPi-8">
          <mxGeometry relative="1" as="geometry" />
        </mxCell>
        <mxCell id="2UeDjiOMkqZX41mlmmPi-5" value="input number1 operator&lt;br&gt;number2" style="shape=parallelogram;perimeter=parallelogramPerimeter;whiteSpace=wrap;html=1;fixedSize=1;rounded=1;" vertex="1" parent="ecncw-W4oVsxr-dDjoRC-1">
          <mxGeometry x="90" y="250" width="120" height="60" as="geometry" />
        </mxCell>
        <mxCell id="2UeDjiOMkqZX41mlmmPi-6" value="" style="edgeStyle=orthogonalEdgeStyle;orthogonalLoop=1;jettySize=auto;html=1;" edge="1" parent="ecncw-W4oVsxr-dDjoRC-1" source="2UeDjiOMkqZX41mlmmPi-8" target="2UeDjiOMkqZX41mlmmPi-30">
          <mxGeometry relative="1" as="geometry" />
        </mxCell>
        <mxCell id="2UeDjiOMkqZX41mlmmPi-7" value="" style="edgeStyle=orthogonalEdgeStyle;orthogonalLoop=1;jettySize=auto;html=1;" edge="1" parent="ecncw-W4oVsxr-dDjoRC-1" source="2UeDjiOMkqZX41mlmmPi-8" target="2UeDjiOMkqZX41mlmmPi-11">
          <mxGeometry relative="1" as="geometry" />
        </mxCell>
        <mxCell id="2UeDjiOMkqZX41mlmmPi-8" value="case *" style="rhombus;whiteSpace=wrap;html=1;rounded=1;" vertex="1" parent="ecncw-W4oVsxr-dDjoRC-1">
          <mxGeometry x="90" y="340" width="120" height="130" as="geometry" />
        </mxCell>
        <mxCell id="2UeDjiOMkqZX41mlmmPi-9" value="" style="edgeStyle=orthogonalEdgeStyle;orthogonalLoop=1;jettySize=auto;html=1;" edge="1" parent="ecncw-W4oVsxr-dDjoRC-1" source="2UeDjiOMkqZX41mlmmPi-11" target="2UeDjiOMkqZX41mlmmPi-14">
          <mxGeometry relative="1" as="geometry" />
        </mxCell>
        <mxCell id="2UeDjiOMkqZX41mlmmPi-10" value="" style="edgeStyle=orthogonalEdgeStyle;orthogonalLoop=1;jettySize=auto;html=1;" edge="1" parent="ecncw-W4oVsxr-dDjoRC-1" source="2UeDjiOMkqZX41mlmmPi-11" target="2UeDjiOMkqZX41mlmmPi-32">
          <mxGeometry relative="1" as="geometry" />
        </mxCell>
        <mxCell id="2UeDjiOMkqZX41mlmmPi-11" value="case /" style="rhombus;whiteSpace=wrap;html=1;rounded=1;" vertex="1" parent="ecncw-W4oVsxr-dDjoRC-1">
          <mxGeometry x="90" y="490" width="120" height="130" as="geometry" />
        </mxCell>
        <mxCell id="2UeDjiOMkqZX41mlmmPi-12" value="" style="edgeStyle=orthogonalEdgeStyle;orthogonalLoop=1;jettySize=auto;html=1;" edge="1" parent="ecncw-W4oVsxr-dDjoRC-1" source="2UeDjiOMkqZX41mlmmPi-14" target="2UeDjiOMkqZX41mlmmPi-17">
          <mxGeometry relative="1" as="geometry" />
        </mxCell>
        <mxCell id="2UeDjiOMkqZX41mlmmPi-13" value="" style="edgeStyle=orthogonalEdgeStyle;orthogonalLoop=1;jettySize=auto;html=1;" edge="1" parent="ecncw-W4oVsxr-dDjoRC-1" source="2UeDjiOMkqZX41mlmmPi-14" target="2UeDjiOMkqZX41mlmmPi-34">
          <mxGeometry relative="1" as="geometry" />
        </mxCell>
        <mxCell id="2UeDjiOMkqZX41mlmmPi-14" value="case +" style="rhombus;whiteSpace=wrap;html=1;rounded=1;" vertex="1" parent="ecncw-W4oVsxr-dDjoRC-1">
          <mxGeometry x="90" y="640" width="120" height="130" as="geometry" />
        </mxCell>
        <mxCell id="2UeDjiOMkqZX41mlmmPi-15" value="" style="edgeStyle=orthogonalEdgeStyle;orthogonalLoop=1;jettySize=auto;html=1;" edge="1" parent="ecncw-W4oVsxr-dDjoRC-1" source="2UeDjiOMkqZX41mlmmPi-17" target="2UeDjiOMkqZX41mlmmPi-20">
          <mxGeometry relative="1" as="geometry" />
        </mxCell>
        <mxCell id="2UeDjiOMkqZX41mlmmPi-16" value="" style="edgeStyle=orthogonalEdgeStyle;orthogonalLoop=1;jettySize=auto;html=1;" edge="1" parent="ecncw-W4oVsxr-dDjoRC-1" source="2UeDjiOMkqZX41mlmmPi-17" target="2UeDjiOMkqZX41mlmmPi-36">
          <mxGeometry relative="1" as="geometry" />
        </mxCell>
        <mxCell id="2UeDjiOMkqZX41mlmmPi-17" value="case -" style="rhombus;whiteSpace=wrap;html=1;rounded=1;" vertex="1" parent="ecncw-W4oVsxr-dDjoRC-1">
          <mxGeometry x="90" y="790" width="120" height="130" as="geometry" />
        </mxCell>
        <mxCell id="2UeDjiOMkqZX41mlmmPi-19" value="" style="edgeStyle=orthogonalEdgeStyle;orthogonalLoop=1;jettySize=auto;html=1;" edge="1" parent="ecncw-W4oVsxr-dDjoRC-1" source="2UeDjiOMkqZX41mlmmPi-20" target="2UeDjiOMkqZX41mlmmPi-38">
          <mxGeometry relative="1" as="geometry" />
        </mxCell>
        <mxCell id="2UeDjiOMkqZX41mlmmPi-20" value="default&amp;nbsp;" style="rhombus;whiteSpace=wrap;html=1;rounded=1;" vertex="1" parent="ecncw-W4oVsxr-dDjoRC-1">
          <mxGeometry x="90" y="940" width="120" height="130" as="geometry" />
        </mxCell>
        <mxCell id="2UeDjiOMkqZX41mlmmPi-62" style="edgeStyle=orthogonalEdgeStyle;rounded=0;orthogonalLoop=1;jettySize=auto;html=1;" edge="1" parent="ecncw-W4oVsxr-dDjoRC-1" source="2UeDjiOMkqZX41mlmmPi-30" target="2UeDjiOMkqZX41mlmmPi-61">
          <mxGeometry relative="1" as="geometry" />
        </mxCell>
        <mxCell id="2UeDjiOMkqZX41mlmmPi-30" value="result = number1 *&lt;br&gt;number2" style="shape=parallelogram;perimeter=parallelogramPerimeter;whiteSpace=wrap;html=1;fixedSize=1;rounded=1;" vertex="1" parent="ecncw-W4oVsxr-dDjoRC-1">
          <mxGeometry x="270" y="375" width="120" height="60" as="geometry" />
        </mxCell>
        <mxCell id="2UeDjiOMkqZX41mlmmPi-31" value="" style="edgeStyle=orthogonalEdgeStyle;orthogonalLoop=1;jettySize=auto;html=1;" edge="1" parent="ecncw-W4oVsxr-dDjoRC-1" source="2UeDjiOMkqZX41mlmmPi-32">
          <mxGeometry relative="1" as="geometry">
            <mxPoint x="670" y="555" as="targetPoint" />
          </mxGeometry>
        </mxCell>
        <mxCell id="2UeDjiOMkqZX41mlmmPi-32" value="result = number1/&lt;br&gt;number2" style="shape=parallelogram;perimeter=parallelogramPerimeter;whiteSpace=wrap;html=1;fixedSize=1;rounded=1;" vertex="1" parent="ecncw-W4oVsxr-dDjoRC-1">
          <mxGeometry x="270" y="525" width="120" height="60" as="geometry" />
        </mxCell>
        <mxCell id="2UeDjiOMkqZX41mlmmPi-33" style="edgeStyle=orthogonalEdgeStyle;orthogonalLoop=1;jettySize=auto;html=1;" edge="1" parent="ecncw-W4oVsxr-dDjoRC-1" source="2UeDjiOMkqZX41mlmmPi-34" target="2UeDjiOMkqZX41mlmmPi-61">
          <mxGeometry relative="1" as="geometry">
            <mxPoint x="580" y="705.0000000000002" as="targetPoint" />
          </mxGeometry>
        </mxCell>
        <mxCell id="2UeDjiOMkqZX41mlmmPi-34" value="result = number1 +&lt;br&gt;number2" style="shape=parallelogram;perimeter=parallelogramPerimeter;whiteSpace=wrap;html=1;fixedSize=1;rounded=1;" vertex="1" parent="ecncw-W4oVsxr-dDjoRC-1">
          <mxGeometry x="270" y="675" width="120" height="60" as="geometry" />
        </mxCell>
        <mxCell id="2UeDjiOMkqZX41mlmmPi-35" style="edgeStyle=orthogonalEdgeStyle;orthogonalLoop=1;jettySize=auto;html=1;entryX=0.5;entryY=1;entryDx=0;entryDy=0;" edge="1" parent="ecncw-W4oVsxr-dDjoRC-1" source="2UeDjiOMkqZX41mlmmPi-36" target="2UeDjiOMkqZX41mlmmPi-61">
          <mxGeometry relative="1" as="geometry">
            <mxPoint x="580" y="860" as="targetPoint" />
            <Array as="points">
              <mxPoint x="580" y="855" />
              <mxPoint x="580" y="735" />
            </Array>
          </mxGeometry>
        </mxCell>
        <mxCell id="2UeDjiOMkqZX41mlmmPi-36" value="result = number1 -&lt;br&gt;number2" style="shape=parallelogram;perimeter=parallelogramPerimeter;whiteSpace=wrap;html=1;fixedSize=1;rounded=1;" vertex="1" parent="ecncw-W4oVsxr-dDjoRC-1">
          <mxGeometry x="270" y="825" width="120" height="60" as="geometry" />
        </mxCell>
        <mxCell id="2UeDjiOMkqZX41mlmmPi-37" style="edgeStyle=orthogonalEdgeStyle;orthogonalLoop=1;jettySize=auto;html=1;entryX=0.6;entryY=0.013;entryDx=0;entryDy=0;entryPerimeter=0;" edge="1" parent="ecncw-W4oVsxr-dDjoRC-1" source="2UeDjiOMkqZX41mlmmPi-38" target="2UeDjiOMkqZX41mlmmPi-45">
          <mxGeometry relative="1" as="geometry">
            <mxPoint x="580" y="1005" as="targetPoint" />
            <Array as="points">
              <mxPoint x="670" y="1005" />
              <mxPoint x="670" y="1051" />
            </Array>
          </mxGeometry>
        </mxCell>
        <mxCell id="2UeDjiOMkqZX41mlmmPi-38" value="&quot;Pilihan tidak valid&quot;" style="shape=parallelogram;perimeter=parallelogramPerimeter;whiteSpace=wrap;html=1;fixedSize=1;rounded=1;" vertex="1" parent="ecncw-W4oVsxr-dDjoRC-1">
          <mxGeometry x="270" y="975" width="120" height="60" as="geometry" />
        </mxCell>
        <mxCell id="2UeDjiOMkqZX41mlmmPi-45" value="end" style="ellipse;whiteSpace=wrap;html=1;rounded=1;" vertex="1" parent="ecncw-W4oVsxr-dDjoRC-1">
          <mxGeometry x="610" y="1050" width="120" height="80" as="geometry" />
        </mxCell>
        <mxCell id="2UeDjiOMkqZX41mlmmPi-46" value="true" style="text;html=1;strokeColor=none;fillColor=none;align=center;verticalAlign=middle;whiteSpace=wrap;rounded=1;" vertex="1" parent="ecncw-W4oVsxr-dDjoRC-1">
          <mxGeometry x="220" y="375" width="40" height="20" as="geometry" />
        </mxCell>
        <mxCell id="2UeDjiOMkqZX41mlmmPi-47" value="true" style="text;html=1;strokeColor=none;fillColor=none;align=center;verticalAlign=middle;whiteSpace=wrap;rounded=1;" vertex="1" parent="ecncw-W4oVsxr-dDjoRC-1">
          <mxGeometry x="230" y="525" width="40" height="20" as="geometry" />
        </mxCell>
        <mxCell id="2UeDjiOMkqZX41mlmmPi-48" value="true" style="text;html=1;strokeColor=none;fillColor=none;align=center;verticalAlign=middle;whiteSpace=wrap;rounded=1;" vertex="1" parent="ecncw-W4oVsxr-dDjoRC-1">
          <mxGeometry x="220" y="675" width="40" height="20" as="geometry" />
        </mxCell>
        <mxCell id="2UeDjiOMkqZX41mlmmPi-49" value="true" style="text;html=1;strokeColor=none;fillColor=none;align=center;verticalAlign=middle;whiteSpace=wrap;rounded=1;" vertex="1" parent="ecncw-W4oVsxr-dDjoRC-1">
          <mxGeometry x="220" y="825" width="40" height="20" as="geometry" />
        </mxCell>
        <mxCell id="2UeDjiOMkqZX41mlmmPi-50" value="true" style="text;html=1;strokeColor=none;fillColor=none;align=center;verticalAlign=middle;whiteSpace=wrap;rounded=1;" vertex="1" parent="ecncw-W4oVsxr-dDjoRC-1">
          <mxGeometry x="220" y="975" width="40" height="20" as="geometry" />
        </mxCell>
        <mxCell id="2UeDjiOMkqZX41mlmmPi-57" value="false" style="text;html=1;strokeColor=none;fillColor=none;align=center;verticalAlign=middle;whiteSpace=wrap;rounded=1;" vertex="1" parent="ecncw-W4oVsxr-dDjoRC-1">
          <mxGeometry x="100" y="920" width="40" height="20" as="geometry" />
        </mxCell>
        <mxCell id="2UeDjiOMkqZX41mlmmPi-58" value="false" style="text;html=1;strokeColor=none;fillColor=none;align=center;verticalAlign=middle;whiteSpace=wrap;rounded=1;" vertex="1" parent="ecncw-W4oVsxr-dDjoRC-1">
          <mxGeometry x="110" y="770" width="40" height="20" as="geometry" />
        </mxCell>
        <mxCell id="2UeDjiOMkqZX41mlmmPi-59" value="false" style="text;html=1;strokeColor=none;fillColor=none;align=center;verticalAlign=middle;whiteSpace=wrap;rounded=1;" vertex="1" parent="ecncw-W4oVsxr-dDjoRC-1">
          <mxGeometry x="100" y="620" width="40" height="20" as="geometry" />
        </mxCell>
        <mxCell id="2UeDjiOMkqZX41mlmmPi-60" value="false" style="text;html=1;strokeColor=none;fillColor=none;align=center;verticalAlign=middle;whiteSpace=wrap;rounded=1;" vertex="1" parent="ecncw-W4oVsxr-dDjoRC-1">
          <mxGeometry x="100" y="470" width="40" height="20" as="geometry" />
        </mxCell>
        <mxCell id="2UeDjiOMkqZX41mlmmPi-63" style="edgeStyle=orthogonalEdgeStyle;rounded=0;orthogonalLoop=1;jettySize=auto;html=1;" edge="1" parent="ecncw-W4oVsxr-dDjoRC-1" source="2UeDjiOMkqZX41mlmmPi-61" target="2UeDjiOMkqZX41mlmmPi-45">
          <mxGeometry relative="1" as="geometry" />
        </mxCell>
        <mxCell id="2UeDjiOMkqZX41mlmmPi-61" value="output result" style="shape=parallelogram;perimeter=parallelogramPerimeter;whiteSpace=wrap;html=1;fixedSize=1;rounded=1;" vertex="1" parent="ecncw-W4oVsxr-dDjoRC-1">
          <mxGeometry x="610" y="675" width="120" height="60" as="geometry" />
        </mxCell>
      </root>
    </mxGraphModel>
  </diagram>
  <diagram id="cgO8i5Pil0cFbp9TatN9" name="Page-3">
    <mxGraphModel dx="1422" dy="710" grid="1" gridSize="10" guides="1" tooltips="1" connect="1" arrows="1" fold="1" page="1" pageScale="1" pageWidth="850" pageHeight="1100" math="0" shadow="0">
      <root>
        <mxCell id="KkKaiJnRASPoldY5LdVL-0" />
        <mxCell id="KkKaiJnRASPoldY5LdVL-1" parent="KkKaiJnRASPoldY5LdVL-0" />
        <mxCell id="5tcHAiI0GrSS87oJVEan-0" value="" style="edgeStyle=orthogonalEdgeStyle;orthogonalLoop=1;jettySize=auto;html=1;" edge="1" parent="KkKaiJnRASPoldY5LdVL-1" source="5tcHAiI0GrSS87oJVEan-1" target="5tcHAiI0GrSS87oJVEan-3">
          <mxGeometry relative="1" as="geometry" />
        </mxCell>
        <mxCell id="5tcHAiI0GrSS87oJVEan-1" value="start" style="ellipse;whiteSpace=wrap;html=1;rounded=1;" vertex="1" parent="KkKaiJnRASPoldY5LdVL-1">
          <mxGeometry x="95" y="40" width="110" height="80" as="geometry" />
        </mxCell>
        <mxCell id="5tcHAiI0GrSS87oJVEan-2" value="" style="edgeStyle=orthogonalEdgeStyle;orthogonalLoop=1;jettySize=auto;html=1;" edge="1" parent="KkKaiJnRASPoldY5LdVL-1" source="5tcHAiI0GrSS87oJVEan-3" target="5tcHAiI0GrSS87oJVEan-5">
          <mxGeometry relative="1" as="geometry" />
        </mxCell>
        <mxCell id="5tcHAiI0GrSS87oJVEan-3" value="int sisi, jari, tinggi, pilihan, result" style="whiteSpace=wrap;html=1;rounded=1;" vertex="1" parent="KkKaiJnRASPoldY5LdVL-1">
          <mxGeometry x="90" y="160" width="120" height="60" as="geometry" />
        </mxCell>
        <mxCell id="5tcHAiI0GrSS87oJVEan-4" value="" style="edgeStyle=orthogonalEdgeStyle;orthogonalLoop=1;jettySize=auto;html=1;" edge="1" parent="KkKaiJnRASPoldY5LdVL-1" source="5tcHAiI0GrSS87oJVEan-5" target="5tcHAiI0GrSS87oJVEan-8">
          <mxGeometry relative="1" as="geometry" />
        </mxCell>
        <mxCell id="5tcHAiI0GrSS87oJVEan-5" value="input pilihan" style="shape=parallelogram;perimeter=parallelogramPerimeter;whiteSpace=wrap;html=1;fixedSize=1;rounded=1;" vertex="1" parent="KkKaiJnRASPoldY5LdVL-1">
          <mxGeometry x="90" y="250" width="120" height="60" as="geometry" />
        </mxCell>
        <mxCell id="5tcHAiI0GrSS87oJVEan-6" value="" style="edgeStyle=orthogonalEdgeStyle;orthogonalLoop=1;jettySize=auto;html=1;" edge="1" parent="KkKaiJnRASPoldY5LdVL-1" source="5tcHAiI0GrSS87oJVEan-8" target="5tcHAiI0GrSS87oJVEan-21">
          <mxGeometry relative="1" as="geometry" />
        </mxCell>
        <mxCell id="5tcHAiI0GrSS87oJVEan-7" value="" style="edgeStyle=orthogonalEdgeStyle;orthogonalLoop=1;jettySize=auto;html=1;" edge="1" parent="KkKaiJnRASPoldY5LdVL-1" source="5tcHAiI0GrSS87oJVEan-8" target="5tcHAiI0GrSS87oJVEan-11">
          <mxGeometry relative="1" as="geometry" />
        </mxCell>
        <mxCell id="5tcHAiI0GrSS87oJVEan-8" value="case 1" style="rhombus;whiteSpace=wrap;html=1;rounded=1;" vertex="1" parent="KkKaiJnRASPoldY5LdVL-1">
          <mxGeometry x="90" y="340" width="120" height="130" as="geometry" />
        </mxCell>
        <mxCell id="5tcHAiI0GrSS87oJVEan-9" value="" style="edgeStyle=orthogonalEdgeStyle;orthogonalLoop=1;jettySize=auto;html=1;" edge="1" parent="KkKaiJnRASPoldY5LdVL-1" source="5tcHAiI0GrSS87oJVEan-11" target="5tcHAiI0GrSS87oJVEan-14">
          <mxGeometry relative="1" as="geometry" />
        </mxCell>
        <mxCell id="5tcHAiI0GrSS87oJVEan-10" value="" style="edgeStyle=orthogonalEdgeStyle;orthogonalLoop=1;jettySize=auto;html=1;" edge="1" parent="KkKaiJnRASPoldY5LdVL-1" source="5tcHAiI0GrSS87oJVEan-11" target="5tcHAiI0GrSS87oJVEan-23">
          <mxGeometry relative="1" as="geometry" />
        </mxCell>
        <mxCell id="5tcHAiI0GrSS87oJVEan-11" value="case 2" style="rhombus;whiteSpace=wrap;html=1;rounded=1;" vertex="1" parent="KkKaiJnRASPoldY5LdVL-1">
          <mxGeometry x="90" y="490" width="120" height="130" as="geometry" />
        </mxCell>
        <mxCell id="5tcHAiI0GrSS87oJVEan-12" value="" style="edgeStyle=orthogonalEdgeStyle;orthogonalLoop=1;jettySize=auto;html=1;" edge="1" parent="KkKaiJnRASPoldY5LdVL-1" source="5tcHAiI0GrSS87oJVEan-14" target="5tcHAiI0GrSS87oJVEan-17">
          <mxGeometry relative="1" as="geometry" />
        </mxCell>
        <mxCell id="5tcHAiI0GrSS87oJVEan-13" value="" style="edgeStyle=orthogonalEdgeStyle;orthogonalLoop=1;jettySize=auto;html=1;" edge="1" parent="KkKaiJnRASPoldY5LdVL-1" source="5tcHAiI0GrSS87oJVEan-14" target="5tcHAiI0GrSS87oJVEan-25">
          <mxGeometry relative="1" as="geometry" />
        </mxCell>
        <mxCell id="5tcHAiI0GrSS87oJVEan-14" value="case 3" style="rhombus;whiteSpace=wrap;html=1;rounded=1;" vertex="1" parent="KkKaiJnRASPoldY5LdVL-1">
          <mxGeometry x="90" y="640" width="120" height="130" as="geometry" />
        </mxCell>
        <mxCell id="5tcHAiI0GrSS87oJVEan-16" value="" style="edgeStyle=orthogonalEdgeStyle;orthogonalLoop=1;jettySize=auto;html=1;" edge="1" parent="KkKaiJnRASPoldY5LdVL-1" source="5tcHAiI0GrSS87oJVEan-17" target="5tcHAiI0GrSS87oJVEan-27">
          <mxGeometry relative="1" as="geometry" />
        </mxCell>
        <mxCell id="5tcHAiI0GrSS87oJVEan-17" value="default" style="rhombus;whiteSpace=wrap;html=1;rounded=1;" vertex="1" parent="KkKaiJnRASPoldY5LdVL-1">
          <mxGeometry x="90" y="790" width="120" height="130" as="geometry" />
        </mxCell>
        <mxCell id="5tcHAiI0GrSS87oJVEan-20" style="edgeStyle=orthogonalEdgeStyle;rounded=0;orthogonalLoop=1;jettySize=auto;html=1;" edge="1" parent="KkKaiJnRASPoldY5LdVL-1" source="5tcHAiI0GrSS87oJVEan-42" target="5tcHAiI0GrSS87oJVEan-41">
          <mxGeometry relative="1" as="geometry" />
        </mxCell>
        <mxCell id="5tcHAiI0GrSS87oJVEan-21" value="input sisi" style="shape=parallelogram;perimeter=parallelogramPerimeter;whiteSpace=wrap;html=1;fixedSize=1;rounded=1;" vertex="1" parent="KkKaiJnRASPoldY5LdVL-1">
          <mxGeometry x="270" y="375" width="120" height="60" as="geometry" />
        </mxCell>
        <mxCell id="5tcHAiI0GrSS87oJVEan-22" value="" style="edgeStyle=orthogonalEdgeStyle;orthogonalLoop=1;jettySize=auto;html=1;" edge="1" parent="KkKaiJnRASPoldY5LdVL-1" source="5tcHAiI0GrSS87oJVEan-44">
          <mxGeometry relative="1" as="geometry">
            <mxPoint x="670" y="555" as="targetPoint" />
          </mxGeometry>
        </mxCell>
        <mxCell id="5tcHAiI0GrSS87oJVEan-23" value="input jari" style="shape=parallelogram;perimeter=parallelogramPerimeter;whiteSpace=wrap;html=1;fixedSize=1;rounded=1;" vertex="1" parent="KkKaiJnRASPoldY5LdVL-1">
          <mxGeometry x="270" y="525" width="120" height="60" as="geometry" />
        </mxCell>
        <mxCell id="5tcHAiI0GrSS87oJVEan-24" style="edgeStyle=orthogonalEdgeStyle;orthogonalLoop=1;jettySize=auto;html=1;" edge="1" parent="KkKaiJnRASPoldY5LdVL-1" source="5tcHAiI0GrSS87oJVEan-25" target="5tcHAiI0GrSS87oJVEan-41">
          <mxGeometry relative="1" as="geometry">
            <mxPoint x="580" y="705.0000000000002" as="targetPoint" />
          </mxGeometry>
        </mxCell>
        <mxCell id="5tcHAiI0GrSS87oJVEan-25" value="result = number1 +&lt;br&gt;number2" style="shape=parallelogram;perimeter=parallelogramPerimeter;whiteSpace=wrap;html=1;fixedSize=1;rounded=1;" vertex="1" parent="KkKaiJnRASPoldY5LdVL-1">
          <mxGeometry x="270" y="675" width="120" height="60" as="geometry" />
        </mxCell>
        <mxCell id="5tcHAiI0GrSS87oJVEan-26" style="edgeStyle=orthogonalEdgeStyle;orthogonalLoop=1;jettySize=auto;html=1;entryX=0.5;entryY=1;entryDx=0;entryDy=0;" edge="1" parent="KkKaiJnRASPoldY5LdVL-1" source="5tcHAiI0GrSS87oJVEan-27" target="5tcHAiI0GrSS87oJVEan-41">
          <mxGeometry relative="1" as="geometry">
            <mxPoint x="580" y="860" as="targetPoint" />
            <Array as="points">
              <mxPoint x="580" y="855" />
              <mxPoint x="580" y="735" />
            </Array>
          </mxGeometry>
        </mxCell>
        <mxCell id="5tcHAiI0GrSS87oJVEan-27" value="Menu tidak valid" style="shape=parallelogram;perimeter=parallelogramPerimeter;whiteSpace=wrap;html=1;fixedSize=1;rounded=1;" vertex="1" parent="KkKaiJnRASPoldY5LdVL-1">
          <mxGeometry x="270" y="825" width="120" height="60" as="geometry" />
        </mxCell>
        <mxCell id="5tcHAiI0GrSS87oJVEan-30" value="end" style="ellipse;whiteSpace=wrap;html=1;rounded=1;" vertex="1" parent="KkKaiJnRASPoldY5LdVL-1">
          <mxGeometry x="610" y="1050" width="120" height="80" as="geometry" />
        </mxCell>
        <mxCell id="5tcHAiI0GrSS87oJVEan-31" value="true" style="text;html=1;strokeColor=none;fillColor=none;align=center;verticalAlign=middle;whiteSpace=wrap;rounded=1;" vertex="1" parent="KkKaiJnRASPoldY5LdVL-1">
          <mxGeometry x="220" y="375" width="40" height="20" as="geometry" />
        </mxCell>
        <mxCell id="5tcHAiI0GrSS87oJVEan-32" value="true" style="text;html=1;strokeColor=none;fillColor=none;align=center;verticalAlign=middle;whiteSpace=wrap;rounded=1;" vertex="1" parent="KkKaiJnRASPoldY5LdVL-1">
          <mxGeometry x="230" y="525" width="40" height="20" as="geometry" />
        </mxCell>
        <mxCell id="5tcHAiI0GrSS87oJVEan-33" value="true" style="text;html=1;strokeColor=none;fillColor=none;align=center;verticalAlign=middle;whiteSpace=wrap;rounded=1;" vertex="1" parent="KkKaiJnRASPoldY5LdVL-1">
          <mxGeometry x="220" y="675" width="40" height="20" as="geometry" />
        </mxCell>
        <mxCell id="5tcHAiI0GrSS87oJVEan-34" value="true" style="text;html=1;strokeColor=none;fillColor=none;align=center;verticalAlign=middle;whiteSpace=wrap;rounded=1;" vertex="1" parent="KkKaiJnRASPoldY5LdVL-1">
          <mxGeometry x="220" y="825" width="40" height="20" as="geometry" />
        </mxCell>
        <mxCell id="5tcHAiI0GrSS87oJVEan-37" value="false" style="text;html=1;strokeColor=none;fillColor=none;align=center;verticalAlign=middle;whiteSpace=wrap;rounded=1;" vertex="1" parent="KkKaiJnRASPoldY5LdVL-1">
          <mxGeometry x="110" y="770" width="40" height="20" as="geometry" />
        </mxCell>
        <mxCell id="5tcHAiI0GrSS87oJVEan-38" value="false" style="text;html=1;strokeColor=none;fillColor=none;align=center;verticalAlign=middle;whiteSpace=wrap;rounded=1;" vertex="1" parent="KkKaiJnRASPoldY5LdVL-1">
          <mxGeometry x="100" y="620" width="40" height="20" as="geometry" />
        </mxCell>
        <mxCell id="5tcHAiI0GrSS87oJVEan-39" value="false" style="text;html=1;strokeColor=none;fillColor=none;align=center;verticalAlign=middle;whiteSpace=wrap;rounded=1;" vertex="1" parent="KkKaiJnRASPoldY5LdVL-1">
          <mxGeometry x="100" y="470" width="40" height="20" as="geometry" />
        </mxCell>
        <mxCell id="5tcHAiI0GrSS87oJVEan-40" style="edgeStyle=orthogonalEdgeStyle;rounded=0;orthogonalLoop=1;jettySize=auto;html=1;" edge="1" parent="KkKaiJnRASPoldY5LdVL-1" source="5tcHAiI0GrSS87oJVEan-41" target="5tcHAiI0GrSS87oJVEan-30">
          <mxGeometry relative="1" as="geometry" />
        </mxCell>
        <mxCell id="5tcHAiI0GrSS87oJVEan-41" value="output result" style="shape=parallelogram;perimeter=parallelogramPerimeter;whiteSpace=wrap;html=1;fixedSize=1;rounded=1;" vertex="1" parent="KkKaiJnRASPoldY5LdVL-1">
          <mxGeometry x="610" y="675" width="120" height="60" as="geometry" />
        </mxCell>
        <mxCell id="5tcHAiI0GrSS87oJVEan-42" value="result = sisi* sisi &lt;br&gt;*sisi" style="shape=parallelogram;perimeter=parallelogramPerimeter;whiteSpace=wrap;html=1;fixedSize=1;rounded=1;" vertex="1" parent="KkKaiJnRASPoldY5LdVL-1">
          <mxGeometry x="450" y="375" width="120" height="60" as="geometry" />
        </mxCell>
        <mxCell id="5tcHAiI0GrSS87oJVEan-43" style="edgeStyle=orthogonalEdgeStyle;rounded=0;orthogonalLoop=1;jettySize=auto;html=1;" edge="1" parent="KkKaiJnRASPoldY5LdVL-1" source="5tcHAiI0GrSS87oJVEan-21" target="5tcHAiI0GrSS87oJVEan-42">
          <mxGeometry relative="1" as="geometry">
            <mxPoint x="380" y="405" as="sourcePoint" />
            <mxPoint x="670" y="675" as="targetPoint" />
          </mxGeometry>
        </mxCell>
        <mxCell id="5tcHAiI0GrSS87oJVEan-44" value="result = 3.14 * jari&lt;br&gt;*jari" style="shape=parallelogram;perimeter=parallelogramPerimeter;whiteSpace=wrap;html=1;fixedSize=1;rounded=1;" vertex="1" parent="KkKaiJnRASPoldY5LdVL-1">
          <mxGeometry x="450" y="525" width="120" height="60" as="geometry" />
        </mxCell>
        <mxCell id="5tcHAiI0GrSS87oJVEan-45" value="" style="edgeStyle=orthogonalEdgeStyle;orthogonalLoop=1;jettySize=auto;html=1;" edge="1" parent="KkKaiJnRASPoldY5LdVL-1" source="5tcHAiI0GrSS87oJVEan-23" target="5tcHAiI0GrSS87oJVEan-44">
          <mxGeometry relative="1" as="geometry">
            <mxPoint x="670" y="555" as="targetPoint" />
            <mxPoint x="380" y="555" as="sourcePoint" />
          </mxGeometry>
        </mxCell>
      </root>
    </mxGraphModel>
  </diagram>
</mxfile>
